<svg xmlns="http://www.w3.org/2000/svg" width="720" height="380" viewBox="0 0 720 380" font-family="ui-monospace, monospace" font-size="12">
<rect width="720" height="380" fill="#120e11"/>
<text x="90" y="26" fill="#ff4f9d" font-size="15">Average blob size on Shelby (KB) vs a field capture</text>
<line x1="90" y1="243.5" x2="696" y2="243.5" stroke="#3a2f36" stroke-width="1"/><text x="82" y="247.5" fill="#8b7c85" text-anchor="end">93</text>
<line x1="90" y1="177.0" x2="696" y2="177.0" stroke="#3a2f36" stroke-width="1"/><text x="82" y="181.0" fill="#8b7c85" text-anchor="end">186</text>
<line x1="90" y1="110.5" x2="696" y2="110.5" stroke="#3a2f36" stroke-width="1"/><text x="82" y="114.5" fill="#8b7c85" text-anchor="end">279</text>
<line x1="90" y1="44.0" x2="696" y2="44.0" stroke="#3a2f36" stroke-width="1"/><text x="82" y="48.0" fill="#8b7c85" text-anchor="end">372</text>
<rect x="106.4" y="127.1" width="53.7" height="182.9" fill="#ff4f9d" opacity="0.9"/><text x="133.3" y="121.1" fill="#e8dde3" text-anchor="middle">256</text><text x="133.3" y="328.0" fill="#8b7c85" text-anchor="middle">image</text>
<rect x="193.0" y="123.9" width="53.7" height="186.1" fill="#ff4f9d" opacity="0.9"/><text x="219.9" y="117.9" fill="#e8dde3" text-anchor="middle">260</text><text x="219.9" y="328.0" fill="#8b7c85" text-anchor="middle">other</text>
<rect x="279.6" y="128.8" width="53.7" height="181.2" fill="#ff4f9d" opacity="0.9"/><text x="306.4" y="122.8" fill="#e8dde3" text-anchor="middle">254</text><text x="306.4" y="328.0" fill="#8b7c85" text-anchor="middle">text</text>
<rect x="366.2" y="128.2" width="53.7" height="181.8" fill="#ff4f9d" opacity="0.9"/><text x="393.0" y="122.2" fill="#e8dde3" text-anchor="middle">254</text><text x="393.0" y="328.0" fill="#8b7c85" text-anchor="middle">document</text>
<rect x="452.7" y="44.0" width="53.7" height="266.0" fill="#ff4f9d" opacity="0.9"/><text x="479.6" y="38.0" fill="#e8dde3" text-anchor="middle">372</text><text x="479.6" y="328.0" fill="#8b7c85" text-anchor="middle">json</text>
<rect x="539.3" y="283.1" width="53.7" height="26.9" fill="#ff4f9d" opacity="0.9"/><text x="566.1" y="277.1" fill="#e8dde3" text-anchor="middle">38</text><text x="566.1" y="328.0" fill="#8b7c85" text-anchor="middle">archive</text>
<rect x="625.9" y="167.0" width="53.7" height="143.0" fill="#ff4f9d" opacity="0.9"/><text x="652.7" y="161.0" fill="#e8dde3" text-anchor="middle">200</text><text x="652.7" y="328.0" fill="#8b7c85" text-anchor="middle">lscap capture</text>
<text x="90" y="372" fill="#8b7c85">measured 2026-08-15T21:37:25Z; capture = 200 KB session assumption</text></svg>